<?xml version="1.0" encoding="UTF-8"?>
<svg width="24px" height="23px" viewBox="0 0 24 23" version="1.1" xmlns="http://www.w3.org/2000/svg" xmlns:xlink="http://www.w3.org/1999/xlink">
    <title>9224362_crown_king_royal_prince_award_icon</title>
    <g id="Page-1" stroke="none" stroke-width="1" fill="none" fill-rule="evenodd">
        <g id="9224362_crown_king_royal_prince_award_icon" transform="translate(0.000000, 0.992365)" fill="#B79640" fill-rule="nonzero">
            <path d="M20,18.0076355 L4,18.0076355 C2.8954305,18.0076355 2,18.903066 2,20.0076355 C2,21.112205 2.8954305,22.0076355 4,22.0076355 L20,22.0076355 C21.1045695,22.0076355 22,21.112205 22,20.0076355 C22,18.903066 21.1045695,18.0076355 20,18.0076355 Z" id="Path"></path>
            <path d="M22,5.00763546 C20.8954305,5.00763546 20,5.90306596 20,7.00763546 C20.0001974,7.14503496 20.0142688,7.28206338 20.042,7.41663546 L16.41,9.59763546 L13.349,3.47563546 C13.9577926,2.91867539 14.162055,2.04501334 13.8633056,1.2758698 C13.5645563,0.506726265 12.824126,0 11.999,0 C11.173874,0 10.4334437,0.506726265 10.1346944,1.2758698 C9.83594504,2.04501334 10.0402074,2.91867539 10.649,3.47563546 L7.59,9.59763546 L3.958,7.41663546 C3.9857312,7.28206338 3.99980258,7.14503496 4,7.00763546 C4,5.90306596 3.1045695,5.00763546 2,5.00763546 C0.8954305,5.00763546 0,5.90306596 0,7.00763546 C0,8.11220496 0.8954305,9.00763546 2,9.00763546 C2.037,9.00763546 2.071,8.99863546 2.107,8.99663546 L2.88,16.0076355 L21.12,16.0076355 L21.893,8.99663546 C21.929,8.99663546 21.963,9.00763546 22,9.00763546 C23.1045695,9.00763546 24,8.11220496 24,7.00763546 C24,5.90306596 23.1045695,5.00763546 22,5.00763546 Z" id="Path"></path>
        </g>
    </g>
</svg>