<svg width="214" height="38" viewBox="0 0 214 38" fill="none" xmlns="http://www.w3.org/2000/svg">
<path d="M2.73 30V9H12.03C13.35 9 14.53 9.29 15.57 9.87C16.63 10.45 17.47 11.25 18.09 12.27C18.71 13.27 19.02 14.42 19.02 15.72C19.02 16.98 18.71 18.12 18.09 19.14C17.47 20.16 16.63 20.97 15.57 21.57C14.53 22.17 13.35 22.47 12.03 22.47H7.05V30H2.73ZM14.67 30L9.33 20.49L13.92 19.74L19.86 30.03L14.67 30ZM7.05 18.78H11.85C12.39 18.78 12.86 18.66 13.26 18.42C13.68 18.16 14 17.81 14.22 17.37C14.46 16.93 14.58 16.43 14.58 15.87C14.58 15.29 14.44 14.78 14.16 14.34C13.88 13.88 13.49 13.53 12.99 13.29C12.49 13.03 11.91 12.9 11.25 12.9H7.05V18.78ZM23.7652 30V9H37.9252V12.96H28.1752V26.04H38.1352V30H23.7652ZM25.8652 21.21V17.37H36.4852V21.21H25.8652ZM49.6181 30.3C47.6581 30.3 45.9781 29.95 44.5781 29.25C43.1981 28.53 42.0081 27.49 41.0081 26.13L43.8281 22.95C44.8081 24.31 45.7781 25.24 46.7381 25.74C47.7181 26.22 48.7681 26.46 49.8881 26.46C50.5081 26.46 51.0581 26.37 51.5381 26.19C52.0381 26.01 52.4281 25.76 52.7081 25.44C53.0081 25.12 53.1581 24.75 53.1581 24.33C53.1581 24.01 53.0881 23.72 52.9481 23.46C52.8081 23.18 52.6081 22.94 52.3481 22.74C52.0881 22.52 51.7781 22.33 51.4181 22.17C51.0581 21.99 50.6581 21.84 50.2181 21.72C49.7781 21.6 49.2981 21.49 48.7781 21.39C47.6581 21.15 46.6781 20.84 45.8381 20.46C44.9981 20.08 44.2981 19.62 43.7381 19.08C43.1781 18.54 42.7581 17.92 42.4781 17.22C42.2181 16.5 42.0881 15.7 42.0881 14.82C42.0881 13.58 42.4381 12.5 43.1381 11.58C43.8381 10.64 44.7681 9.91 45.9281 9.39C47.0881 8.85 48.3681 8.58 49.7681 8.58C51.6681 8.58 53.2281 8.9 54.4481 9.54C55.6881 10.18 56.6781 11.08 57.4181 12.24L54.5381 15.06C53.9181 14.2 53.2081 13.55 52.4081 13.11C51.6081 12.67 50.7481 12.45 49.8281 12.45C49.1881 12.45 48.6181 12.54 48.1181 12.72C47.6381 12.88 47.2681 13.13 47.0081 13.47C46.7481 13.79 46.6181 14.17 46.6181 14.61C46.6181 14.97 46.7081 15.29 46.8881 15.57C47.0681 15.85 47.3181 16.1 47.6381 16.32C47.9781 16.52 48.3881 16.7 48.8681 16.86C49.3481 17.02 49.8781 17.15 50.4581 17.25C51.5581 17.47 52.5481 17.77 53.4281 18.15C54.3081 18.51 55.0581 18.95 55.6781 19.47C56.3181 19.99 56.8081 20.59 57.1481 21.27C57.4881 21.95 57.6581 22.71 57.6581 23.55C57.6581 24.97 57.3181 26.18 56.6381 27.18C55.9581 28.18 55.0181 28.95 53.8181 29.49C52.6181 30.03 51.2181 30.3 49.6181 30.3ZM68.5439 30.3C66.5839 30.3 64.9039 29.95 63.5039 29.25C62.1239 28.53 60.9339 27.49 59.9339 26.13L62.7539 22.95C63.7339 24.31 64.7039 25.24 65.6639 25.74C66.6439 26.22 67.6939 26.46 68.8139 26.46C69.4339 26.46 69.9839 26.37 70.4639 26.19C70.9639 26.01 71.3539 25.76 71.6339 25.44C71.9339 25.12 72.0839 24.75 72.0839 24.33C72.0839 24.01 72.0139 23.72 71.8739 23.46C71.7339 23.18 71.5339 22.94 71.2739 22.74C71.0139 22.52 70.7039 22.33 70.3439 22.17C69.9839 21.99 69.5839 21.84 69.1439 21.72C68.7039 21.6 68.2239 21.49 67.7039 21.39C66.5839 21.15 65.6039 20.84 64.7639 20.46C63.9239 20.08 63.2239 19.62 62.6639 19.08C62.1039 18.54 61.6839 17.92 61.4039 17.22C61.1439 16.5 61.0139 15.7 61.0139 14.82C61.0139 13.58 61.3639 12.5 62.0639 11.58C62.7639 10.64 63.6939 9.91 64.8539 9.39C66.0139 8.85 67.2939 8.58 68.6939 8.58C70.5939 8.58 72.1539 8.9 73.3739 9.54C74.6139 10.18 75.6039 11.08 76.3439 12.24L73.4639 15.06C72.8439 14.2 72.1339 13.55 71.3339 13.11C70.5339 12.67 69.6739 12.45 68.7539 12.45C68.1139 12.45 67.5439 12.54 67.0439 12.72C66.5639 12.88 66.1939 13.13 65.9339 13.47C65.6739 13.79 65.5439 14.17 65.5439 14.61C65.5439 14.97 65.6339 15.29 65.8139 15.57C65.9939 15.85 66.2439 16.1 66.5639 16.32C66.9039 16.52 67.3139 16.7 67.7939 16.86C68.2739 17.02 68.8039 17.15 69.3839 17.25C70.4839 17.47 71.4739 17.77 72.3539 18.15C73.2339 18.51 73.9839 18.95 74.6039 19.47C75.2439 19.99 75.7339 20.59 76.0739 21.27C76.4139 21.95 76.5839 22.71 76.5839 23.55C76.5839 24.97 76.2439 26.18 75.5639 27.18C74.8839 28.18 73.9439 28.95 72.7439 29.49C71.5439 30.03 70.1439 30.3 68.5439 30.3Z" fill="black"/>
<path d="M122.37 30.18C120.67 30.18 119.15 29.83 117.81 29.13C116.49 28.41 115.45 27.43 114.69 26.19C113.93 24.93 113.55 23.51 113.55 21.93V8.97H118.05V21.66C118.05 22.5 118.24 23.26 118.62 23.94C119.02 24.6 119.55 25.13 120.21 25.53C120.87 25.93 121.59 26.13 122.37 26.13C123.19 26.13 123.93 25.93 124.59 25.53C125.27 25.13 125.8 24.6 126.18 23.94C126.58 23.26 126.78 22.5 126.78 21.66V8.97H131.13V21.93C131.13 23.51 130.75 24.93 129.99 26.19C129.25 27.43 128.22 28.41 126.9 29.13C125.58 29.83 124.07 30.18 122.37 30.18ZM136.406 30V9H145.706C147.026 9 148.206 9.29 149.246 9.87C150.306 10.45 151.146 11.25 151.766 12.27C152.386 13.27 152.696 14.42 152.696 15.72C152.696 16.98 152.386 18.12 151.766 19.14C151.146 20.16 150.306 20.97 149.246 21.57C148.206 22.17 147.026 22.47 145.706 22.47H140.726V30H136.406ZM148.346 30L143.006 20.49L147.596 19.74L153.536 30.03L148.346 30ZM140.726 18.78H145.526C146.066 18.78 146.536 18.66 146.936 18.42C147.356 18.16 147.676 17.81 147.896 17.37C148.136 16.93 148.256 16.43 148.256 15.87C148.256 15.29 148.116 14.78 147.836 14.34C147.556 13.88 147.166 13.53 146.666 13.29C146.166 13.03 145.586 12.9 144.926 12.9H140.726V18.78ZM166.328 30.3C164.788 30.3 163.368 30.04 162.068 29.52C160.788 28.98 159.668 28.23 158.708 27.27C157.768 26.29 157.038 25.14 156.518 23.82C156.018 22.5 155.768 21.05 155.768 19.47C155.768 17.93 156.038 16.51 156.578 15.21C157.118 13.89 157.878 12.74 158.858 11.76C159.838 10.78 160.978 10.02 162.278 9.48C163.598 8.94 165.028 8.67 166.568 8.67C167.568 8.67 168.548 8.81 169.508 9.09C170.488 9.35 171.378 9.75 172.178 10.29C172.998 10.81 173.698 11.42 174.278 12.12L171.458 15.27C170.758 14.51 169.998 13.93 169.178 13.53C168.358 13.13 167.478 12.93 166.538 12.93C165.678 12.93 164.868 13.09 164.108 13.41C163.368 13.71 162.718 14.15 162.158 14.73C161.598 15.31 161.158 16 160.838 16.8C160.518 17.6 160.358 18.49 160.358 19.47C160.358 20.47 160.508 21.38 160.808 22.2C161.128 23 161.578 23.69 162.158 24.27C162.738 24.83 163.428 25.27 164.228 25.59C165.048 25.89 165.948 26.04 166.928 26.04C167.568 26.04 168.178 25.95 168.758 25.77C169.358 25.59 169.918 25.34 170.438 25.02C170.958 24.7 171.418 24.33 171.818 23.91L174.008 27.42C173.548 27.96 172.908 28.45 172.088 28.89C171.268 29.33 170.358 29.68 169.358 29.94C168.358 30.18 167.348 30.3 166.328 30.3ZM177.802 30V9H191.962V12.96H182.212V26.04H192.172V30H177.802ZM179.902 21.21V17.37H190.522V21.21H179.902ZM203.655 30.3C201.695 30.3 200.015 29.95 198.615 29.25C197.235 28.53 196.045 27.49 195.045 26.13L197.865 22.95C198.845 24.31 199.815 25.24 200.775 25.74C201.755 26.22 202.805 26.46 203.925 26.46C204.545 26.46 205.095 26.37 205.575 26.19C206.075 26.01 206.465 25.76 206.745 25.44C207.045 25.12 207.195 24.75 207.195 24.33C207.195 24.01 207.125 23.72 206.985 23.46C206.845 23.18 206.645 22.94 206.385 22.74C206.125 22.52 205.815 22.33 205.455 22.17C205.095 21.99 204.695 21.84 204.255 21.72C203.815 21.6 203.335 21.49 202.815 21.39C201.695 21.15 200.715 20.84 199.875 20.46C199.035 20.08 198.335 19.62 197.775 19.08C197.215 18.54 196.795 17.92 196.515 17.22C196.255 16.5 196.125 15.7 196.125 14.82C196.125 13.58 196.475 12.5 197.175 11.58C197.875 10.64 198.805 9.91 199.965 9.39C201.125 8.85 202.405 8.58 203.805 8.58C205.705 8.58 207.265 8.9 208.485 9.54C209.725 10.18 210.715 11.08 211.455 12.24L208.575 15.06C207.955 14.2 207.245 13.55 206.445 13.11C205.645 12.67 204.785 12.45 203.865 12.45C203.225 12.45 202.655 12.54 202.155 12.72C201.675 12.88 201.305 13.13 201.045 13.47C200.785 13.79 200.655 14.17 200.655 14.61C200.655 14.97 200.745 15.29 200.925 15.57C201.105 15.85 201.355 16.1 201.675 16.32C202.015 16.52 202.425 16.7 202.905 16.86C203.385 17.02 203.915 17.15 204.495 17.25C205.595 17.47 206.585 17.77 207.465 18.15C208.345 18.51 209.095 18.95 209.715 19.47C210.355 19.99 210.845 20.59 211.185 21.27C211.525 21.95 211.695 22.71 211.695 23.55C211.695 24.97 211.355 26.18 210.675 27.18C209.995 28.18 209.055 28.95 207.855 29.49C206.655 30.03 205.255 30.3 203.655 30.3Z" fill="black"/>
<path d="M81 12C81 9.23858 83.2386 7 86 7H108V27C108 29.7614 105.761 32 103 32H81V12Z" fill="#8685EF"/>
<path d="M95.0119 14.8448C95.8539 14.8448 96.5925 14.3987 96.9948 13.7291C97.687 13.9439 98.3381 14.2676 98.9338 14.7118C99.4138 15.0599 99.8377 15.4765 100.195 15.9497C100.423 16.2528 100.859 16.3135 101.163 16.0914C101.47 15.8681 101.535 15.4423 101.308 15.1406C100.321 13.8175 98.8586 12.8694 97.2965 12.3911C97.1995 11.2423 96.2095 10.3383 95.0119 10.3383C91.9724 10.4307 91.9767 14.7493 95.0119 14.8448Z" fill="white"/>
<path d="M89.965 19.8C89.965 18.9732 89.5105 18.2482 88.8285 17.8531C89.0474 17.1733 89.3772 16.534 89.8291 15.9494C90.185 15.4774 90.6093 15.0609 91.0899 14.7114C91.3972 14.488 91.4621 14.0626 91.2346 13.7609C91.0075 13.4588 90.5738 13.3948 90.2665 13.6188C88.92 14.5855 87.9525 16.0231 87.4657 17.557C86.2957 17.6521 85.375 18.6241 85.375 19.8C85.4691 22.7843 89.8677 22.7799 89.965 19.8Z" fill="white"/>
<path d="M89.8291 23.6506C89.6022 23.3486 89.1675 23.2846 88.8609 23.5086C88.5536 23.732 88.4887 24.1574 88.7162 24.4591C89.7008 25.7811 91.165 26.7311 92.7273 27.2089C92.8242 28.3576 93.8142 29.2617 95.0119 29.2617C98.0515 29.1693 98.0469 24.8506 95.0119 24.7551C94.1698 24.7551 93.4314 25.2013 93.0289 25.8709C92.3365 25.6561 91.6854 25.3323 91.0899 24.8886C90.6093 24.5391 90.185 24.1226 89.8291 23.6506Z" fill="white"/>
<path d="M102.357 17.5433C100.031 17.5295 99.2035 20.6287 101.195 21.7467C100.804 22.9745 99.9974 24.1179 98.9338 24.8883C98.208 25.4189 99.0286 26.5076 99.7573 25.9815C101.102 25.0159 102.071 23.5771 102.558 22.043C105.429 21.7493 105.26 17.601 102.357 17.5433Z" fill="white"/>
</svg>
