<svg width="214" height="50" viewBox="0 0 214 50" fill="none" xmlns="http://www.w3.org/2000/svg">
<path d="M2.73 33.3467V12.3467H12.03C13.35 12.3467 14.53 12.6367 15.57 13.2167C16.63 13.7967 17.47 14.5967 18.09 15.6167C18.71 16.6167 19.02 17.7667 19.02 19.0667C19.02 20.3267 18.71 21.4667 18.09 22.4867C17.47 23.5067 16.63 24.3167 15.57 24.9167C14.53 25.5167 13.35 25.8167 12.03 25.8167H7.05V33.3467H2.73ZM14.67 33.3467L9.33 23.8367L13.92 23.0867L19.86 33.3767L14.67 33.3467ZM7.05 22.1267H11.85C12.39 22.1267 12.86 22.0067 13.26 21.7667C13.68 21.5067 14 21.1567 14.22 20.7167C14.46 20.2767 14.58 19.7767 14.58 19.2167C14.58 18.6367 14.44 18.1267 14.16 17.6867C13.88 17.2267 13.49 16.8767 12.99 16.6367C12.49 16.3767 11.91 16.2467 11.25 16.2467H7.05V22.1267ZM23.7652 33.3467V12.3467H37.9252V16.3067H28.1752V29.3867H38.1352V33.3467H23.7652ZM25.8652 24.5567V20.7167H36.4852V24.5567H25.8652ZM49.6181 33.6467C47.6581 33.6467 45.9781 33.2967 44.5781 32.5967C43.1981 31.8767 42.0081 30.8367 41.0081 29.4767L43.8281 26.2967C44.8081 27.6567 45.7781 28.5867 46.7381 29.0867C47.7181 29.5667 48.7681 29.8067 49.8881 29.8067C50.5081 29.8067 51.0581 29.7167 51.5381 29.5367C52.0381 29.3567 52.4281 29.1067 52.7081 28.7867C53.0081 28.4667 53.1581 28.0967 53.1581 27.6767C53.1581 27.3567 53.0881 27.0667 52.9481 26.8067C52.8081 26.5267 52.6081 26.2867 52.3481 26.0867C52.0881 25.8667 51.7781 25.6767 51.4181 25.5167C51.0581 25.3367 50.6581 25.1867 50.2181 25.0667C49.7781 24.9467 49.2981 24.8367 48.7781 24.7367C47.6581 24.4967 46.6781 24.1867 45.8381 23.8067C44.9981 23.4267 44.2981 22.9667 43.7381 22.4267C43.1781 21.8867 42.7581 21.2667 42.4781 20.5667C42.2181 19.8467 42.0881 19.0467 42.0881 18.1667C42.0881 16.9267 42.4381 15.8467 43.1381 14.9267C43.8381 13.9867 44.7681 13.2567 45.9281 12.7367C47.0881 12.1967 48.3681 11.9267 49.7681 11.9267C51.6681 11.9267 53.2281 12.2467 54.4481 12.8867C55.6881 13.5267 56.6781 14.4267 57.4181 15.5867L54.5381 18.4067C53.9181 17.5467 53.2081 16.8967 52.4081 16.4567C51.6081 16.0167 50.7481 15.7967 49.8281 15.7967C49.1881 15.7967 48.6181 15.8867 48.1181 16.0667C47.6381 16.2267 47.2681 16.4767 47.0081 16.8167C46.7481 17.1367 46.6181 17.5167 46.6181 17.9567C46.6181 18.3167 46.7081 18.6367 46.8881 18.9167C47.0681 19.1967 47.3181 19.4467 47.6381 19.6667C47.9781 19.8667 48.3881 20.0467 48.8681 20.2067C49.3481 20.3667 49.8781 20.4967 50.4581 20.5967C51.5581 20.8167 52.5481 21.1167 53.4281 21.4967C54.3081 21.8567 55.0581 22.2967 55.6781 22.8167C56.3181 23.3367 56.8081 23.9367 57.1481 24.6167C57.4881 25.2967 57.6581 26.0567 57.6581 26.8967C57.6581 28.3167 57.3181 29.5267 56.6381 30.5267C55.9581 31.5267 55.0181 32.2967 53.8181 32.8367C52.6181 33.3767 51.2181 33.6467 49.6181 33.6467ZM68.5439 33.6467C66.5839 33.6467 64.9039 33.2967 63.5039 32.5967C62.1239 31.8767 60.9339 30.8367 59.9339 29.4767L62.7539 26.2967C63.7339 27.6567 64.7039 28.5867 65.6639 29.0867C66.6439 29.5667 67.6939 29.8067 68.8139 29.8067C69.4339 29.8067 69.9839 29.7167 70.4639 29.5367C70.9639 29.3567 71.3539 29.1067 71.6339 28.7867C71.9339 28.4667 72.0839 28.0967 72.0839 27.6767C72.0839 27.3567 72.0139 27.0667 71.8739 26.8067C71.7339 26.5267 71.5339 26.2867 71.2739 26.0867C71.0139 25.8667 70.7039 25.6767 70.3439 25.5167C69.9839 25.3367 69.5839 25.1867 69.1439 25.0667C68.7039 24.9467 68.2239 24.8367 67.7039 24.7367C66.5839 24.4967 65.6039 24.1867 64.7639 23.8067C63.9239 23.4267 63.2239 22.9667 62.6639 22.4267C62.1039 21.8867 61.6839 21.2667 61.4039 20.5667C61.1439 19.8467 61.0139 19.0467 61.0139 18.1667C61.0139 16.9267 61.3639 15.8467 62.0639 14.9267C62.7639 13.9867 63.6939 13.2567 64.8539 12.7367C66.0139 12.1967 67.2939 11.9267 68.6939 11.9267C70.5939 11.9267 72.1539 12.2467 73.3739 12.8867C74.6139 13.5267 75.6039 14.4267 76.3439 15.5867L73.4639 18.4067C72.8439 17.5467 72.1339 16.8967 71.3339 16.4567C70.5339 16.0167 69.6739 15.7967 68.7539 15.7967C68.1139 15.7967 67.5439 15.8867 67.0439 16.0667C66.5639 16.2267 66.1939 16.4767 65.9339 16.8167C65.6739 17.1367 65.5439 17.5167 65.5439 17.9567C65.5439 18.3167 65.6339 18.6367 65.8139 18.9167C65.9939 19.1967 66.2439 19.4467 66.5639 19.6667C66.9039 19.8667 67.3139 20.0467 67.7939 20.2067C68.2739 20.3667 68.8039 20.4967 69.3839 20.5967C70.4839 20.8167 71.4739 21.1167 72.3539 21.4967C73.2339 21.8567 73.9839 22.2967 74.6039 22.8167C75.2439 23.3367 75.7339 23.9367 76.0739 24.6167C76.4139 25.2967 76.5839 26.0567 76.5839 26.8967C76.5839 28.3167 76.2439 29.5267 75.5639 30.5267C74.8839 31.5267 73.9439 32.2967 72.7439 32.8367C71.5439 33.3767 70.1439 33.6467 68.5439 33.6467Z" fill="white"/>
<path d="M122.37 33.5267C120.67 33.5267 119.15 33.1767 117.81 32.4767C116.49 31.7567 115.45 30.7767 114.69 29.5367C113.93 28.2767 113.55 26.8567 113.55 25.2767V12.3167H118.05V25.0067C118.05 25.8467 118.24 26.6067 118.62 27.2867C119.02 27.9467 119.55 28.4767 120.21 28.8767C120.87 29.2767 121.59 29.4767 122.37 29.4767C123.19 29.4767 123.93 29.2767 124.59 28.8767C125.27 28.4767 125.8 27.9467 126.18 27.2867C126.58 26.6067 126.78 25.8467 126.78 25.0067V12.3167H131.13V25.2767C131.13 26.8567 130.75 28.2767 129.99 29.5367C129.25 30.7767 128.22 31.7567 126.9 32.4767C125.58 33.1767 124.07 33.5267 122.37 33.5267ZM136.406 33.3467V12.3467H145.706C147.026 12.3467 148.206 12.6367 149.246 13.2167C150.306 13.7967 151.146 14.5967 151.766 15.6167C152.386 16.6167 152.696 17.7667 152.696 19.0667C152.696 20.3267 152.386 21.4667 151.766 22.4867C151.146 23.5067 150.306 24.3167 149.246 24.9167C148.206 25.5167 147.026 25.8167 145.706 25.8167H140.726V33.3467H136.406ZM148.346 33.3467L143.006 23.8367L147.596 23.0867L153.536 33.3767L148.346 33.3467ZM140.726 22.1267H145.526C146.066 22.1267 146.536 22.0067 146.936 21.7667C147.356 21.5067 147.676 21.1567 147.896 20.7167C148.136 20.2767 148.256 19.7767 148.256 19.2167C148.256 18.6367 148.116 18.1267 147.836 17.6867C147.556 17.2267 147.166 16.8767 146.666 16.6367C146.166 16.3767 145.586 16.2467 144.926 16.2467H140.726V22.1267ZM166.328 33.6467C164.788 33.6467 163.368 33.3867 162.068 32.8667C160.788 32.3267 159.668 31.5767 158.708 30.6167C157.768 29.6367 157.038 28.4867 156.518 27.1667C156.018 25.8467 155.768 24.3967 155.768 22.8167C155.768 21.2767 156.038 19.8567 156.578 18.5567C157.118 17.2367 157.878 16.0867 158.858 15.1067C159.838 14.1267 160.978 13.3667 162.278 12.8267C163.598 12.2867 165.028 12.0167 166.568 12.0167C167.568 12.0167 168.548 12.1567 169.508 12.4367C170.488 12.6967 171.378 13.0967 172.178 13.6367C172.998 14.1567 173.698 14.7667 174.278 15.4667L171.458 18.6167C170.758 17.8567 169.998 17.2767 169.178 16.8767C168.358 16.4767 167.478 16.2767 166.538 16.2767C165.678 16.2767 164.868 16.4367 164.108 16.7567C163.368 17.0567 162.718 17.4967 162.158 18.0767C161.598 18.6567 161.158 19.3467 160.838 20.1467C160.518 20.9467 160.358 21.8367 160.358 22.8167C160.358 23.8167 160.508 24.7267 160.808 25.5467C161.128 26.3467 161.578 27.0367 162.158 27.6167C162.738 28.1767 163.428 28.6167 164.228 28.9367C165.048 29.2367 165.948 29.3867 166.928 29.3867C167.568 29.3867 168.178 29.2967 168.758 29.1167C169.358 28.9367 169.918 28.6867 170.438 28.3667C170.958 28.0467 171.418 27.6767 171.818 27.2567L174.008 30.7667C173.548 31.3067 172.908 31.7967 172.088 32.2367C171.268 32.6767 170.358 33.0267 169.358 33.2867C168.358 33.5267 167.348 33.6467 166.328 33.6467ZM177.802 33.3467V12.3467H191.962V16.3067H182.212V29.3867H192.172V33.3467H177.802ZM179.902 24.5567V20.7167H190.522V24.5567H179.902ZM203.655 33.6467C201.695 33.6467 200.015 33.2967 198.615 32.5967C197.235 31.8767 196.045 30.8367 195.045 29.4767L197.865 26.2967C198.845 27.6567 199.815 28.5867 200.775 29.0867C201.755 29.5667 202.805 29.8067 203.925 29.8067C204.545 29.8067 205.095 29.7167 205.575 29.5367C206.075 29.3567 206.465 29.1067 206.745 28.7867C207.045 28.4667 207.195 28.0967 207.195 27.6767C207.195 27.3567 207.125 27.0667 206.985 26.8067C206.845 26.5267 206.645 26.2867 206.385 26.0867C206.125 25.8667 205.815 25.6767 205.455 25.5167C205.095 25.3367 204.695 25.1867 204.255 25.0667C203.815 24.9467 203.335 24.8367 202.815 24.7367C201.695 24.4967 200.715 24.1867 199.875 23.8067C199.035 23.4267 198.335 22.9667 197.775 22.4267C197.215 21.8867 196.795 21.2667 196.515 20.5667C196.255 19.8467 196.125 19.0467 196.125 18.1667C196.125 16.9267 196.475 15.8467 197.175 14.9267C197.875 13.9867 198.805 13.2567 199.965 12.7367C201.125 12.1967 202.405 11.9267 203.805 11.9267C205.705 11.9267 207.265 12.2467 208.485 12.8867C209.725 13.5267 210.715 14.4267 211.455 15.5867L208.575 18.4067C207.955 17.5467 207.245 16.8967 206.445 16.4567C205.645 16.0167 204.785 15.7967 203.865 15.7967C203.225 15.7967 202.655 15.8867 202.155 16.0667C201.675 16.2267 201.305 16.4767 201.045 16.8167C200.785 17.1367 200.655 17.5167 200.655 17.9567C200.655 18.3167 200.745 18.6367 200.925 18.9167C201.105 19.1967 201.355 19.4467 201.675 19.6667C202.015 19.8667 202.425 20.0467 202.905 20.2067C203.385 20.3667 203.915 20.4967 204.495 20.5967C205.595 20.8167 206.585 21.1167 207.465 21.4967C208.345 21.8567 209.095 22.2967 209.715 22.8167C210.355 23.3367 210.845 23.9367 211.185 24.6167C211.525 25.2967 211.695 26.0567 211.695 26.8967C211.695 28.3167 211.355 29.5267 210.675 30.5267C209.995 31.5267 209.055 32.2967 207.855 32.8367C206.655 33.3767 205.255 33.6467 203.655 33.6467Z" fill="white"/>
<path d="M81 15.3467C81 12.5853 83.2386 10.3467 86 10.3467H108V30.3467C108 33.1082 105.761 35.3467 103 35.3467H81V15.3467Z" fill="#8685EF"/>
<path d="M99.7185 29.6485C100.059 29.4256 100.383 29.1797 100.684 28.9127C103.24 26.6463 104.135 23.0893 102.996 19.9276C104.235 18.8042 104.35 16.8923 103.245 15.6466C102.141 14.401 100.229 14.2856 98.9652 15.3811C95.9628 13.8711 92.3265 14.3316 89.7701 16.5981C89.4666 16.8672 89.1837 17.1594 88.924 17.4684C87.9384 17.1657 86.8172 17.3684 85.9884 18.1032C84.7254 19.2229 84.603 21.1543 85.7156 22.4092C86.0714 22.8105 86.514 23.0934 86.9905 23.2593C87.0917 25.1042 87.8044 26.8628 89.0343 28.2499C90.2641 29.6371 91.9226 30.553 93.7441 30.8769C93.8497 31.3675 94.0775 31.8408 94.4353 32.2444C95.5479 33.4993 97.48 33.6092 98.743 32.4895C99.5677 31.7501 99.9033 30.6612 99.7185 29.6485ZM102.311 16.4746C102.969 17.2168 102.897 18.3625 102.15 19.0248C101.403 19.6872 100.259 19.6199 99.6009 18.8776C98.9428 18.1353 99.0154 16.9897 99.7624 16.3273C100.509 15.665 101.653 15.7323 102.311 16.4746ZM86.811 19.031C87.5581 18.3687 88.7042 18.4339 89.3622 19.1762C90.0203 19.9185 89.9478 21.0641 89.2007 21.7264C88.4536 22.3888 87.3076 22.3236 86.6495 21.5813C85.9914 20.839 86.0616 19.6954 86.811 19.031ZM88.239 23.4118C88.8769 23.36 89.5053 23.1094 90.0213 22.652C91.2843 21.5322 91.4066 19.6008 90.294 18.3459C90.2097 18.2508 90.1225 18.1666 90.0286 18.0841C90.2064 17.885 90.3923 17.6995 90.5907 17.5236C92.7035 15.6504 95.6875 15.2255 98.1985 16.3882C97.6966 17.4587 97.8385 18.7663 98.6673 19.7011C99.4961 20.636 100.779 20.9358 101.9 20.5635C102.752 23.1934 101.977 26.1052 99.8616 27.9805C99.6631 28.1564 99.4544 28.3207 99.2377 28.4714C99.1692 28.3706 99.094 28.2716 99.0096 28.1765C97.8971 26.9216 95.965 26.8117 94.7019 27.9314C94.186 28.3888 93.8643 28.9807 93.7341 29.6098C92.2793 29.3046 90.9593 28.5401 89.966 27.4197C88.9727 26.2993 88.3719 24.8973 88.239 23.4118ZM95.3651 31.4118C94.707 30.6696 94.7795 29.5239 95.5266 28.8616C96.2737 28.1993 97.4198 28.2645 98.0779 29.0067C98.736 29.749 98.6634 30.8947 97.9163 31.557C97.1669 32.2214 96.0232 32.1541 95.3651 31.4118Z" fill="white"/>
</svg>
