<svg width="40" height="36" viewBox="0 0 31 28" fill="none" xmlns="http://www.w3.org/2000/svg">
<path d="M0 5C0 2.23858 2.23858 0 5 0H31V23C31 25.7614 28.7614 28 26 28H0V5Z" fill="#8685EF"/>
<path d="M21.0615 21.1927C21.4018 20.9698 21.7258 20.7239 22.027 20.4569C24.5834 18.1905 25.4785 14.6335 24.3391 11.4718C25.5781 10.3484 25.6926 8.43647 24.5882 7.19083C23.4839 5.94519 21.572 5.82981 20.3083 6.92531C17.3058 5.41531 13.6696 5.87583 11.1132 8.14227C10.8097 8.41134 10.5268 8.70361 10.267 9.01262C9.28143 8.70986 8.16024 8.91259 7.33146 9.64737C6.06845 10.7671 5.9461 12.6985 7.05869 13.9534C7.41447 14.3547 7.85708 14.6376 8.33354 14.8035C8.43481 16.6484 9.14752 18.407 10.3773 19.7941C11.6071 21.1813 13.2656 22.0972 15.0872 22.4211C15.1928 22.9117 15.4206 23.385 15.7784 23.7886C16.891 25.0435 18.8231 25.1534 20.0861 24.0337C20.9108 23.2942 21.2464 22.2054 21.0615 21.1927ZM23.6544 8.01875C24.3125 8.76103 24.2399 9.90667 23.4929 10.569C22.7458 11.2313 21.602 11.1641 20.944 10.4218C20.2859 9.67952 20.3584 8.53388 21.1055 7.87154C21.8526 7.2092 22.9963 7.27647 23.6544 8.01875ZM8.15407 10.5752C8.90114 9.91288 10.0472 9.97808 10.7053 10.7204C11.3634 11.4626 11.2908 12.6083 10.5438 13.2706C9.7967 13.933 8.65062 13.8678 7.99253 13.1255C7.33443 12.3832 7.40467 11.2396 8.15407 10.5752ZM9.58206 14.956C10.2199 14.9042 10.8484 14.6536 11.3643 14.1961C12.6273 13.0764 12.7497 11.145 11.6371 9.89012C11.5528 9.79502 11.4656 9.71076 11.3716 9.62832C11.5495 9.42919 11.7353 9.24373 11.9338 9.0678C14.0466 7.19462 17.0306 6.76968 19.5416 7.93235C19.0397 9.0029 19.1816 10.3105 20.0104 11.2453C20.8392 12.1801 22.1224 12.48 23.2434 12.1077C24.0948 14.7376 23.3198 17.6494 21.2046 19.5247C21.0062 19.7006 20.7975 19.8649 20.5808 20.0156C20.5123 19.9148 20.437 19.8158 20.3527 19.7207C19.2401 18.4658 17.308 18.3558 16.045 19.4756C15.5291 19.933 15.2073 20.5249 15.0771 21.154C13.6223 20.8488 12.3024 20.0843 11.3091 18.9639C10.3158 17.8435 9.71492 16.4415 9.58206 14.956ZM16.7081 22.956C16.05 22.2138 16.1226 21.0681 16.8697 20.4058C17.6168 19.7434 18.7628 19.8086 19.4209 20.5509C20.079 21.2932 20.0065 22.4388 19.2594 23.1012C18.51 23.7656 17.3662 23.6983 16.7081 22.956Z" fill="white"/>
</svg>
